<svg enable-background="new 0 0 512 512" viewBox="0 0 512 512" xmlns="http://www.w3.org/2000/svg"><path d="m483.114 208.091h-334.059c-7.953 0-14.4 6.447-14.4 14.4v80.147h-100.586c-7.953 0-14.4 6.447-14.4 14.4v165.562c0 7.953 6.447 14.4 14.4 14.4h114.987 219.072 114.987c7.953 0 14.4-6.447 14.4-14.4v-260.109c-.001-7.953-6.449-14.4-14.401-14.4z" fill="#afc1c9"/><path d="m498.737 188.996h-284.036c-3.976 0-7.2 3.224-7.2 7.2v16.99c0 4.697 3.808 8.505 8.505 8.505h281.427c4.697 0 8.505-3.808 8.505-8.505v-16.99c-.001-3.976-3.224-7.2-7.201-7.2z" fill="#95aaad"/><path d="m18.445 279.932h284.037c3.976 0 7.2 3.224 7.2 7.2v16.99c0 4.697-3.808 8.505-8.505 8.505h-281.427c-4.697 0-8.505-3.808-8.505-8.505v-16.99c0-3.977 3.224-7.2 7.2-7.2z" fill="#95aaad"/><path d="m316.414 30.003h-257.715c-4.162 0-7.536 3.994-7.536 8.92v449.157c0 4.926 3.374 8.92 7.536 8.92h257.715c4.162 0 7.536-3.994 7.536-8.92v-449.157c0-4.926-3.374-8.92-7.536-8.92z" fill="#cfdbe2"/><path d="m234.917 113.538h-33.14v-33.14c0-3.976-3.224-7.2-7.2-7.2h-14.04c-3.976 0-7.2 3.224-7.2 7.2v33.14h-33.14c-3.976 0-7.2 3.224-7.2 7.2v14.04c0 3.976 3.224 7.2 7.2 7.2h33.14v33.14c0 3.977 3.224 7.2 7.2 7.2h14.04c3.976 0 7.2-3.224 7.2-7.2v-33.14h33.14c3.976 0 7.2-3.224 7.2-7.2v-14.04c0-3.977-3.223-7.2-7.2-7.2z" fill="#ff473e"/><path d="m463.893 368.367h-105.778c-3.976 0-7.2-3.224-7.2-7.2v-42.429c0-3.976 3.224-7.2 7.2-7.2h105.779c3.976 0 7.2 3.224 7.2 7.2v42.429c-.001 3.976-3.224 7.2-7.201 7.2zm8.439 81.968v-42.429c0-3.976-3.224-7.2-7.2-7.2h-108.256c-3.976 0-7.2 3.224-7.2 7.2v42.429c0 3.976 3.224 7.2 7.2 7.2h108.256c3.977-.001 7.2-3.224 7.2-7.2zm0-181.17v-14.015c0-3.976-3.224-7.2-7.2-7.2h-108.256c-3.976 0-7.2 3.224-7.2 7.2v14.015c0 3.976 3.224 7.2 7.2 7.2h108.256c3.977 0 7.2-3.224 7.2-7.2z" fill="#0096d1"/><path d="m100.843 421.106h173.427v75.894h-173.427z" fill="#2b3b47"/><path d="m205.639 368.367h-35.71c-3.976 0-7.2-3.224-7.2-7.2v-44.863c0-3.976 3.224-7.2 7.2-7.2h35.71c3.976 0 7.2 3.224 7.2 7.2v44.863c0 3.976-3.223 7.2-7.2 7.2zm85.161-7.2v-44.863c0-3.976-3.224-7.2-7.2-7.2h-35.71c-3.976 0-7.2 3.224-7.2 7.2v44.863c0 3.976 3.224 7.2 7.2 7.2h35.71c3.976 0 7.2-3.224 7.2-7.2zm-155.921 0v-44.863c0-3.976-3.224-7.2-7.2-7.2h-35.71c-3.976 0-7.2 3.224-7.2 7.2v44.863c0 3.976 3.224 7.2 7.2 7.2h35.71c3.977 0 7.2-3.224 7.2-7.2zm-19.774-92.002v-44.863c0-3.976-3.224-7.2-7.2-7.2h-15.936c-3.976 0-7.2 3.224-7.2 7.2v44.863c0 3.976 3.224 7.2 7.2 7.2h15.936c3.977 0 7.2-3.224 7.2-7.2zm58.565 0v-44.863c0-3.976-3.224-7.2-7.2-7.2h-15.936c-3.976 0-7.2 3.224-7.2 7.2v44.863c0 3.976 3.224 7.2 7.2 7.2h15.936c3.977 0 7.2-3.224 7.2-7.2zm58.565 0v-44.863c0-3.976-3.224-7.2-7.2-7.2h-15.936c-3.976 0-7.2 3.224-7.2 7.2v44.863c0 3.976 3.224 7.2 7.2 7.2h15.936c3.976 0 7.2-3.224 7.2-7.2zm58.565 0v-44.863c0-3.976-3.224-7.2-7.2-7.2h-15.936c-3.976 0-7.2 3.224-7.2 7.2v44.863c0 3.976 3.224 7.2 7.2 7.2h15.936c3.976 0 7.2-3.224 7.2-7.2z" fill="#00b1ff"/><path d="m274.27 429.12h-173.427v-8.22c0-5.442 4.412-9.854 9.854-9.854h153.718c5.442 0 9.854 4.412 9.854 9.854v8.22z" fill="#67747c"/><path d="m329.803 20.062h-284.037c-3.976 0-7.2 3.224-7.2 7.2v16.99c0 4.697 3.808 8.505 8.505 8.505h281.427c4.697 0 8.505-3.808 8.505-8.505v-16.99c0-3.977-3.224-7.2-7.2-7.2z" fill="#95aaad"/></svg>