<svg xmlns="http://www.w3.org/2000/svg" xmlns:xlink="http://www.w3.org/1999/xlink" width="24" height="24"><radialGradient id="A" cx="-874.845" cy="-231.292" r="11.998" gradientTransform="matrix(0 -1.982 -1.8439 0 -420.1036 -1708.0818)" gradientUnits="userSpaceOnUse"><stop offset="0" stop-color="#fd5"/><stop offset=".1" stop-color="#fd5"/><stop offset=".5" stop-color="#ff543e"/><stop offset="1" stop-color="#c837ab"/></radialGradient><use xlink:href="#D" fill="url(#A)"/><radialGradient id="B" cx="-399.53" cy="178.322" r="11.998" gradientTransform="matrix(0.1739,0.8687,3.5818,-0.7172,-573.243,476.701)" gradientUnits="userSpaceOnUse"><stop offset="0" stop-color="#3771c8"/><stop offset=".128" stop-color="#3771c8"/><stop offset="1" stop-color="#60f" stop-opacity="0"/></radialGradient><use xlink:href="#D" fill="url(#B)"/><path fill="#fff" d="M12 3.14l-3.653.054c-.943.043-1.587.192-2.15.412-.584.226-1.078.528-1.57 1.02s-.796.987-1.023 1.57c-.22.563-.37 1.208-.412 2.15L3.14 12l.053 3.652c.044.943.193 1.587.412 2.15.227.582.53 1.077 1.02 1.57a4.32 4.32 0 0 0 1.569 1.022c.563.22 1.208.37 2.15.412L12 20.86l3.652-.053c.943-.043 1.588-.193 2.15-.412a4.34 4.34 0 0 0 1.568-1.022 4.33 4.33 0 0 0 1.022-1.569c.218-.563.367-1.207.412-2.15L20.858 12l-.053-3.653c-.045-.943-.194-1.587-.412-2.15-.227-.583-.53-1.077-1.022-1.57a4.32 4.32 0 0 0-1.569-1.021c-.564-.22-1.21-.37-2.15-.412L12 3.14zm-.795 1.597H12l3.58.05c.863.04 1.333.184 1.645.305.414.16.708.353 1.02.663s.502.605.663 1.02c.12.312.266.78.305 1.645l.052 3.58-.052 3.58c-.04.864-.184 1.333-.305 1.645-.16.413-.354.708-.663 1.018s-.604.503-1.02.663c-.312.12-.78.266-1.645.305l-3.58.053c-2.366 0-2.646-.01-3.58-.053-.864-.04-1.333-.184-1.646-.305-.413-.16-.71-.354-1.02-.663s-.502-.604-.663-1.02c-.12-.312-.266-.78-.306-1.645l-.05-3.58.05-3.58c.04-.864.185-1.333.306-1.645.16-.414.353-.71.663-1.02s.605-.502 1.02-.663c.313-.122.78-.266 1.646-.305l2.785-.05v.002zm5.524 1.47c-.588 0-1.063.476-1.063 1.063s.476 1.063 1.063 1.063 1.063-.476 1.063-1.063-.476-1.063-1.063-1.063zM12 7.45A4.55 4.55 0 0 0 7.451 12a4.55 4.55 0 0 0 4.55 4.549A4.55 4.55 0 0 0 16.55 12a4.55 4.55 0 0 0-4.549-4.55zm0 1.597c1.63 0 2.953 1.322 2.953 2.953S13.632 14.953 12 14.953 9.048 13.63 9.048 12 10.37 9.047 12 9.047z"/><defs ><path id="D" d="M12.004.003l-6.76.03C4.216.117 3.576.28 2.88.626A4.8 4.8 0 0 0 1.5 1.636C.74 2.426.277 3.4.1 4.555c-.08.56-.104.674-.11 3.54v3.9l.03 6.754c.083 1 .24 1.63.572 2.318a5.06 5.06 0 0 0 3.276 2.677c.495.127 1.042.197 1.743.23l6.357.022 6.352-.02c.812-.04 1.283-.102 1.805-.236a5.02 5.02 0 0 0 3.276-2.683c.326-.672.49-1.325.566-2.273.015-.205.022-3.502.022-6.793l-.023-6.79c-.076-.964-.24-1.61-.577-2.296-.276-.56-.582-.98-1.027-1.407C21.58.74 20.608.28 19.45.113c-.56-.08-.672-.105-3.54-.1h-3.906z"/></defs></svg>