<svg xmlns="http://www.w3.org/2000/svg" width="24" height="24"><path fill="#1178b3" d="M6.82 4.43c0 .672-.234 1.25-.703 1.734a2.29 2.29 0 0 1-1.711.727c-.673 0-1.242-.242-1.71-.727S1.99 5.102 1.99 4.43s.234-1.242.703-1.71 1.038-.703 1.71-.703 1.242.234 1.71.703.703 1.04.703 1.71zm-.094 4.383V21.47a.47.47 0 0 1-.164.375c-.1.094-.228.14-.352.14H2.647c-.157 0-.28-.047-.375-.14s-.14-.22-.14-.375V8.813c0-.125.047-.242.14-.352s.218-.164.375-.164H6.2c.124 0 .24.055.352.164s.163.227.163.352zm10.22 3.445c-.25-.328-.72-.492-1.406-.492-.844 0-1.438.25-1.78.75s-.517 1.203-.517 2.11v6.844c0 .156-.047.28-.142.375s-.22.14-.375.14h-3.56c-.125 0-.242-.047-.352-.14s-.164-.22-.164-.375V8.813c0-.125.054-.242.164-.352s.227-.164.352-.164h3.47c.123 0 .227.03.305.094s.133.156.164.28v.234c.03.063.047.172.047.328.874-.844 2.063-1.266 3.563-1.266 1.656 0 2.953.422 3.892 1.266S22 11.312 22 12.937v8.53c0 .155-.056.28-.164.375s-.23.14-.353.14h-3.656c-.125 0-.24-.047-.352-.14a.47.47 0 0 1-.164-.375V13.78c-.002-.686-.127-1.194-.377-1.522z"/></svg>