<svg height="216" preserveAspectRatio="xMidYMid" viewBox="0 0 218 216" width="218" xmlns="http://www.w3.org/2000/svg"><g fill-rule="evenodd"><path d="m184.994 188.702h-153.237c-2.647 0-4.788-2.129-4.788-4.763v-152.357c0-2.632 2.141-4.761 4.788-4.761h153.237c2.647 0 4.789 2.129 4.789 4.761v152.357c0 2.634-2.142 4.763-4.789 4.763z" fill="#2476ff"/><path d="m156.262 160.133h-95.773c-2.646 0-4.788-2.129-4.788-4.76v-95.223c0-2.632 2.142-4.761 4.788-4.761h95.773c2.647 0 4.788 2.129 4.788 4.761v95.223c0 2.631-2.141 4.76-4.788 4.76z" fill="#ededed"/><path d="m60.49 160.135h7.852v-91.606c0-2.631 2.142-4.761 4.789-4.761h87.919v-3.618c0-2.632-2.141-4.761-4.788-4.761h-95.772c-2.647 0-4.789 2.129-4.789 4.761v95.223c0 2.631 2.142 4.762 4.789 4.762z" opacity=".35"/><g fill="#142a3b"><path d="m44.353 26.224h-7.185v-26.23h7.185z"/><path d="m63.507 26.224h-7.184v-26.23h7.184z"/><path d="m82.662 26.224h-7.185v-26.23h7.185z"/><path d="m101.816 26.224h-7.184v-26.23h7.184z"/><path d="m120.971 26.224h-7.185v-26.23h7.185z"/><path d="m140.125 26.224h-7.185v-26.23h7.185z"/><path d="m159.279 26.224h-7.184v-26.23h7.184z"/><path d="m178.434 26.224h-7.185v-26.23h7.185z"/><path d="m44.353 215.528h-7.185v-26.23h7.185z"/><path d="m63.507 215.528h-7.184v-26.23h7.184z"/><path d="m82.662 215.528h-7.185v-26.23h7.185z"/><path d="m101.816 215.528h-7.184v-26.23h7.184z"/><path d="m120.971 215.528h-7.185v-26.23h7.185z"/><path d="m140.125 215.528h-7.185v-26.23h7.185z"/><path d="m159.279 215.528h-7.184v-26.23h7.184z"/><path d="m178.434 215.528h-7.185v-26.23h7.185z"/><path d="m26.347 177.439h-26.339v-7.184h26.339z"/><path d="m26.347 158.394h-26.339v-7.185h26.339z"/><path d="m26.347 139.35h-26.339v-7.185h26.339z"/><path d="m26.347 120.304h-26.339v-7.184h26.339z"/><path d="m26.347 101.261h-26.339v-7.184h26.339z"/><path d="m26.347 82.216h-26.339v-7.184h26.339z"/><path d="m26.347 63.17h-26.339v-7.184h26.339z"/><path d="m26.347 44.125h-26.339v-7.184h26.339z"/><path d="m216.742 177.439h-26.338v-7.184h26.338z"/><path d="m216.742 158.394h-26.338v-7.185h26.338z"/><path d="m216.742 139.35h-26.338v-7.185h26.338z"/><path d="m216.742 120.304h-26.338v-7.184h26.338z"/><path d="m216.742 101.261h-26.338v-7.184h26.338z"/><path d="m216.742 82.216h-26.338v-7.184h26.338z"/><path d="m216.742 63.17h-26.338v-7.184h26.338z"/><path d="m216.742 44.125h-26.338v-7.184h26.338z"/></g></g></svg>