<svg fill="none" height="32" viewBox="0 0 32 32" width="32" xmlns="http://www.w3.org/2000/svg" xmlns:xlink="http://www.w3.org/1999/xlink"><linearGradient id="a" gradientUnits="userSpaceOnUse" x1="16.8175" x2="18.5031" y1="22.8745" y2="18.5899"><stop offset="0" stop-color="#ff9700"/><stop offset=".53" stop-color="#f48e00"/><stop offset="1" stop-color="#d06f00"/></linearGradient><circle cx="16" cy="16" fill="#4b4b4b" r="14"/><g clip-rule="evenodd" fill-rule="evenodd"><path d="m23.9978 16.0579c0-.2344-.18-.3696-.4009-.3024l-15.19601 4.6379c-.22133.0676-.40089.3127-.40089.5467v4.7402c0 .2344.17956.37.40089.3024l15.19601-4.6375c.2209-.0676.4009-.3127.4009-.5471z" fill="url(#a)"/><path d="m8 15.9092c0 .2344.17956.4795.40089.5471l15.19821 4.6384c.2213.0676.4009-.068.4009-.302v-4.7406c0-.234-.1796-.4791-.4009-.5467l-15.19821-4.6384c-.22133-.0676-.40089.0676-.40089.302z" fill="#ff9800"/><path d="m23.9978 6.31981c0-.23442-.18-.37002-.4009-.30243l-15.19601 4.63752c-.22133.0676-.40089.3127-.40089.5471v4.7402c0 .2344.17956.3696.40089.3024l15.19601-4.6379c.2209-.0676.4009-.3127.4009-.5467z" fill="#ff9800"/></g></svg>