<svg xmlns="http://www.w3.org/2000/svg" width="24" height="24"><path fill="red" d="M12 3.837l4.346.06 3.074.127.978.054c.01 0 .085.007.228.02l.31.04.314.06c.146.027.274.063.38.107l.375.174c.143.07.28.16.416.262a3.27 3.27 0 0 1 .389.354c.053.054.122.137.207.248s.215.373.39.783a5.08 5.08 0 0 1 .354 1.353l.167 1.828.074 1.52v2.356a28.46 28.46 0 0 1-.241 3.885c-.063.49-.174.935-.335 1.332s-.303.672-.428.824l-.188.228c-.125.134-.255.252-.39.354a2.28 2.28 0 0 1-.416.255l-.375.167c-.106.045-.234.08-.38.107l-.322.06c-.066.013-.17.026-.308.04l-.22.02-8.397.255-4.815-.087-2.685-.1-.656-.054-.482-.054-.73-.134c-.166-.045-.393-.14-.683-.28s-.542-.326-.757-.55c-.054-.054-.123-.137-.208-.248s-.214-.373-.388-.783a5.08 5.08 0 0 1-.355-1.353l-.167-1.828L0 13.72v-2.357A28.3 28.3 0 0 1 .241 7.48c.062-.49.174-.935.334-1.332s.304-.672.43-.825l.188-.228a3.04 3.04 0 0 1 .389-.354c.134-.103.272-.2.415-.262l.375-.174c.107-.045.234-.08.382-.107l.314-.06c.063-.013.165-.026.308-.04l.228-.02L12 3.837zM9.522 15.382l6.48-3.35-6.48-3.388v6.737z"/></svg>